<svg aria-roledescription="er" role="graphics-document document" viewBox="0 0 469.8828125 364" style="max-width: 469.8828125px;" xmlns="http://www.w3.org/2000/svg" width="100%" id="mermaidSvgChart"><style>#mermaidSvgChart{font-family:"trebuchet ms",verdana,arial,sans-serif;font-size:16px;fill:#ccc;}#mermaidSvgChart .error-icon{fill:#a44141;}#mermaidSvgChart .error-text{fill:#ddd;stroke:#ddd;}#mermaidSvgChart .edge-thickness-normal{stroke-width:2px;}#mermaidSvgChart .edge-thickness-thick{stroke-width:3.5px;}#mermaidSvgChart .edge-pattern-solid{stroke-dasharray:0;}#mermaidSvgChart .edge-pattern-dashed{stroke-dasharray:3;}#mermaidSvgChart .edge-pattern-dotted{stroke-dasharray:2;}#mermaidSvgChart .marker{fill:lightgrey;stroke:lightgrey;}#mermaidSvgChart .marker.cross{stroke:lightgrey;}#mermaidSvgChart svg{font-family:"trebuchet ms",verdana,arial,sans-serif;font-size:16px;}#mermaidSvgChart .entityBox{fill:#1f2020;stroke:#81B1DB;}#mermaidSvgChart .attributeBoxOdd{fill:hsl(0, 0%, 32%);stroke:#81B1DB;}#mermaidSvgChart .attributeBoxEven{fill:hsl(0, 0%, 22%);stroke:#81B1DB;}#mermaidSvgChart .relationshipLabelBox{fill:hsl(20, 1.5873015873%, 12.3529411765%);opacity:0.7;background-color:hsl(20, 1.5873015873%, 12.3529411765%);}#mermaidSvgChart .relationshipLabelBox rect{opacity:0.5;}#mermaidSvgChart .relationshipLine{stroke:lightgrey;}#mermaidSvgChart .entityTitleText{text-anchor:middle;font-size:18px;fill:#ccc;}#mermaidSvgChart :root{--mermaid-font-family:"trebuchet ms",verdana,arial,sans-serif;}</style><g></g><defs><marker orient="auto" markerHeight="18" markerWidth="18" refY="9" refX="0" id="ONLY_ONE_START"><path d="M9,0 L9,18 M15,0 L15,18" fill="none" stroke="gray"></path></marker></defs><defs><marker orient="auto" markerHeight="18" markerWidth="18" refY="9" refX="18" id="ONLY_ONE_END"><path d="M3,0 L3,18 M9,0 L9,18" fill="none" stroke="gray"></path></marker></defs><defs><marker orient="auto" markerHeight="18" markerWidth="30" refY="9" refX="0" id="ZERO_OR_ONE_START"><circle r="6" cy="9" cx="21" fill="white" stroke="gray"></circle><path d="M9,0 L9,18" fill="none" stroke="gray"></path></marker></defs><defs><marker orient="auto" markerHeight="18" markerWidth="30" refY="9" refX="30" id="ZERO_OR_ONE_END"><circle r="6" cy="9" cx="9" fill="white" stroke="gray"></circle><path d="M21,0 L21,18" fill="none" stroke="gray"></path></marker></defs><defs><marker orient="auto" markerHeight="36" markerWidth="45" refY="18" refX="18" id="ONE_OR_MORE_START"><path d="M0,18 Q 18,0 36,18 Q 18,36 0,18 M42,9 L42,27" fill="none" stroke="gray"></path></marker></defs><defs><marker orient="auto" markerHeight="36" markerWidth="45" refY="18" refX="27" id="ONE_OR_MORE_END"><path d="M3,9 L3,27 M9,18 Q27,0 45,18 Q27,36 9,18" fill="none" stroke="gray"></path></marker></defs><defs><marker orient="auto" markerHeight="36" markerWidth="57" refY="18" refX="18" id="ZERO_OR_MORE_START"><circle r="6" cy="18" cx="48" fill="white" stroke="gray"></circle><path d="M0,18 Q18,0 36,18 Q18,36 0,18" fill="none" stroke="gray"></path></marker></defs><defs><marker orient="auto" markerHeight="36" markerWidth="57" refY="18" refX="39" id="ZERO_OR_MORE_END"><circle r="6" cy="18" cx="9" fill="white" stroke="gray"></circle><path d="M21,18 Q39,0 57,18 Q39,36 21,18" fill="none" stroke="gray"></path></marker></defs><path style="stroke: gray; fill: none;" marker-start="url(#ZERO_OR_ONE_START)" marker-end="url(#ONE_OR_MORE_END)" d="M161.26,153.828L151.792,162.19C142.324,170.552,123.389,187.276,113.921,203.971C104.453,220.667,104.453,237.333,104.453,245.667L104.453,254" class="er relationshipLine"></path><path style="stroke: gray; fill: none;" marker-start="url(#ZERO_OR_ONE_START)" marker-end="url(#ONE_OR_MORE_END)" d="M312.588,153.828L322.056,162.19C331.523,170.552,350.459,187.276,359.927,203.971C369.395,220.667,369.395,237.333,369.395,245.667L369.395,254" class="er relationshipLine"></path><g transform="translate(288.90625,254 )" id="entity-dboproducts-b2c933d4-1d6c-5a67-b8c3-f30fabb5273f"><rect height="90" width="160.9765625" y="0" x="0" class="er entityBox"></rect><text style="dominant-baseline: middle; text-anchor: middle; font-size: 12px;" transform="translate(80.48828125,12)" y="0" x="0" id="text-entity-dboproducts-b2c933d4-1d6c-5a67-b8c3-f30fabb5273f" class="er entityLabel">dbo.products</text><rect height="22" width="62.15625" y="24" x="0" class="er attributeBoxOdd"></rect><text style="dominant-baseline: middle; font-size: 10.2px;" transform="translate(5,35)" y="0" x="0" id="text-entity-dboproducts-b2c933d4-1d6c-5a67-b8c3-f30fabb5273f-attr-1-type" class="er entityLabel">varchar(10)</text><rect height="22" width="75.2109375" y="24" x="62.15625" class="er attributeBoxOdd"></rect><text style="dominant-baseline: middle; font-size: 10.2px;" transform="translate(67.15625,35)" y="0" x="0" id="text-entity-dboproducts-b2c933d4-1d6c-5a67-b8c3-f30fabb5273f-attr-1-name" class="er entityLabel">product_id</text><rect height="22" width="23.609375" y="24" x="137.3671875" class="er attributeBoxOdd"></rect><text style="dominant-baseline: middle; font-size: 10.2px;" transform="translate(142.3671875,35)" y="0" x="0" id="text-entity-dboproducts-b2c933d4-1d6c-5a67-b8c3-f30fabb5273f-attr-1-comment" class="er entityLabel">PK</text><rect height="22" width="62.15625" y="46" x="0" class="er attributeBoxEven"></rect><text style="dominant-baseline: middle; font-size: 10.2px;" transform="translate(5,57)" y="0" x="0" id="text-entity-dboproducts-b2c933d4-1d6c-5a67-b8c3-f30fabb5273f-attr-2-type" class="er entityLabel">varchar(20)</text><rect height="22" width="75.2109375" y="46" x="62.15625" class="er attributeBoxEven"></rect><text style="dominant-baseline: middle; font-size: 10.2px;" transform="translate(67.15625,57)" y="0" x="0" id="text-entity-dboproducts-b2c933d4-1d6c-5a67-b8c3-f30fabb5273f-attr-2-name" class="er entityLabel">product_name</text><rect height="22" width="23.609375" y="46" x="137.3671875" class="er attributeBoxEven"></rect><text style="dominant-baseline: middle; font-size: 10.2px;" transform="translate(142.3671875,57)" y="0" x="0" id="text-entity-dboproducts-b2c933d4-1d6c-5a67-b8c3-f30fabb5273f-attr-2-comment" class="er entityLabel"></text><rect height="22" width="62.15625" y="68" x="0" class="er attributeBoxOdd"></rect><text style="dominant-baseline: middle; font-size: 10.2px;" transform="translate(5,79)" y="0" x="0" id="text-entity-dboproducts-b2c933d4-1d6c-5a67-b8c3-f30fabb5273f-attr-3-type" class="er entityLabel">float</text><rect height="22" width="75.2109375" y="68" x="62.15625" class="er attributeBoxOdd"></rect><text style="dominant-baseline: middle; font-size: 10.2px;" transform="translate(67.15625,79)" y="0" x="0" id="text-entity-dboproducts-b2c933d4-1d6c-5a67-b8c3-f30fabb5273f-attr-3-name" class="er entityLabel">unit_price</text><rect height="22" width="23.609375" y="68" x="137.3671875" class="er attributeBoxOdd"></rect><text style="dominant-baseline: middle; font-size: 10.2px;" transform="translate(142.3671875,79)" y="0" x="0" id="text-entity-dboproducts-b2c933d4-1d6c-5a67-b8c3-f30fabb5273f-attr-3-comment" class="er entityLabel"></text></g><g transform="translate(20,254 )" id="entity-dbocustomers-f5b28b97-9b74-5ed1-9b8a-3f5c25a4ee96"><rect height="90" width="168.90625" y="0" x="0" class="er entityBox"></rect><text style="dominant-baseline: middle; text-anchor: middle; font-size: 12px;" transform="translate(84.453125,12)" y="0" x="0" id="text-entity-dbocustomers-f5b28b97-9b74-5ed1-9b8a-3f5c25a4ee96" class="er entityLabel">dbo.customers</text><rect height="22" width="62.15625" y="24" x="0" class="er attributeBoxOdd"></rect><text style="dominant-baseline: middle; font-size: 10.2px;" transform="translate(5,35)" y="0" x="0" id="text-entity-dbocustomers-f5b28b97-9b74-5ed1-9b8a-3f5c25a4ee96-attr-1-type" class="er entityLabel">varchar(10)</text><rect height="22" width="83.140625" y="24" x="62.15625" class="er attributeBoxOdd"></rect><text style="dominant-baseline: middle; font-size: 10.2px;" transform="translate(67.15625,35)" y="0" x="0" id="text-entity-dbocustomers-f5b28b97-9b74-5ed1-9b8a-3f5c25a4ee96-attr-1-name" class="er entityLabel">customer_id</text><rect height="22" width="23.609375" y="24" x="145.296875" class="er attributeBoxOdd"></rect><text style="dominant-baseline: middle; font-size: 10.2px;" transform="translate(150.296875,35)" y="0" x="0" id="text-entity-dbocustomers-f5b28b97-9b74-5ed1-9b8a-3f5c25a4ee96-attr-1-comment" class="er entityLabel">PK</text><rect height="22" width="62.15625" y="46" x="0" class="er attributeBoxEven"></rect><text style="dominant-baseline: middle; font-size: 10.2px;" transform="translate(5,57)" y="0" x="0" id="text-entity-dbocustomers-f5b28b97-9b74-5ed1-9b8a-3f5c25a4ee96-attr-2-type" class="er entityLabel">varchar(50)</text><rect height="22" width="83.140625" y="46" x="62.15625" class="er attributeBoxEven"></rect><text style="dominant-baseline: middle; font-size: 10.2px;" transform="translate(67.15625,57)" y="0" x="0" id="text-entity-dbocustomers-f5b28b97-9b74-5ed1-9b8a-3f5c25a4ee96-attr-2-name" class="er entityLabel">customer_name</text><rect height="22" width="23.609375" y="46" x="145.296875" class="er attributeBoxEven"></rect><text style="dominant-baseline: middle; font-size: 10.2px;" transform="translate(150.296875,57)" y="0" x="0" id="text-entity-dbocustomers-f5b28b97-9b74-5ed1-9b8a-3f5c25a4ee96-attr-2-comment" class="er entityLabel"></text><rect height="22" width="62.15625" y="68" x="0" class="er attributeBoxOdd"></rect><text style="dominant-baseline: middle; font-size: 10.2px;" transform="translate(5,79)" y="0" x="0" id="text-entity-dbocustomers-f5b28b97-9b74-5ed1-9b8a-3f5c25a4ee96-attr-3-type" class="er entityLabel">varchar(30)</text><rect height="22" width="83.140625" y="68" x="62.15625" class="er attributeBoxOdd"></rect><text style="dominant-baseline: middle; font-size: 10.2px;" transform="translate(67.15625,79)" y="0" x="0" id="text-entity-dbocustomers-f5b28b97-9b74-5ed1-9b8a-3f5c25a4ee96-attr-3-name" class="er entityLabel">city</text><rect height="22" width="23.609375" y="68" x="145.296875" class="er attributeBoxOdd"></rect><text style="dominant-baseline: middle; font-size: 10.2px;" transform="translate(150.296875,79)" y="0" x="0" id="text-entity-dbocustomers-f5b28b97-9b74-5ed1-9b8a-3f5c25a4ee96-attr-3-comment" class="er entityLabel"></text></g><g transform="translate(161.259765625,20 )" id="entity-dboorders-951b9797-0598-5bcd-a3a1-b976a446c791"><rect height="134" width="151.328125" y="0" x="0" class="er entityBox"></rect><text style="dominant-baseline: middle; text-anchor: middle; font-size: 12px;" transform="translate(75.6640625,12)" y="0" x="0" id="text-entity-dboorders-951b9797-0598-5bcd-a3a1-b976a446c791" class="er entityLabel">dbo.orders</text><rect height="22" width="62.15625" y="24" x="0" class="er attributeBoxOdd"></rect><text style="dominant-baseline: middle; font-size: 10.2px;" transform="translate(5,35)" y="0" x="0" id="text-entity-dboorders-951b9797-0598-5bcd-a3a1-b976a446c791-attr-1-type" class="er entityLabel">varchar(10)</text><rect height="22" width="65.5625" y="24" x="62.15625" class="er attributeBoxOdd"></rect><text style="dominant-baseline: middle; font-size: 10.2px;" transform="translate(67.15625,35)" y="0" x="0" id="text-entity-dboorders-951b9797-0598-5bcd-a3a1-b976a446c791-attr-1-name" class="er entityLabel">order_id</text><rect height="22" width="23.609375" y="24" x="127.71875" class="er attributeBoxOdd"></rect><text style="dominant-baseline: middle; font-size: 10.2px;" transform="translate(132.71875,35)" y="0" x="0" id="text-entity-dboorders-951b9797-0598-5bcd-a3a1-b976a446c791-attr-1-comment" class="er entityLabel">PK</text><rect height="22" width="62.15625" y="46" x="0" class="er attributeBoxEven"></rect><text style="dominant-baseline: middle; font-size: 10.2px;" transform="translate(5,57)" y="0" x="0" id="text-entity-dboorders-951b9797-0598-5bcd-a3a1-b976a446c791-attr-2-type" class="er entityLabel">date</text><rect height="22" width="65.5625" y="46" x="62.15625" class="er attributeBoxEven"></rect><text style="dominant-baseline: middle; font-size: 10.2px;" transform="translate(67.15625,57)" y="0" x="0" id="text-entity-dboorders-951b9797-0598-5bcd-a3a1-b976a446c791-attr-2-name" class="er entityLabel">order_date</text><rect height="22" width="23.609375" y="46" x="127.71875" class="er attributeBoxEven"></rect><text style="dominant-baseline: middle; font-size: 10.2px;" transform="translate(132.71875,57)" y="0" x="0" id="text-entity-dboorders-951b9797-0598-5bcd-a3a1-b976a446c791-attr-2-comment" class="er entityLabel"></text><rect height="22" width="62.15625" y="68" x="0" class="er attributeBoxOdd"></rect><text style="dominant-baseline: middle; font-size: 10.2px;" transform="translate(5,79)" y="0" x="0" id="text-entity-dboorders-951b9797-0598-5bcd-a3a1-b976a446c791-attr-3-type" class="er entityLabel">varchar(10)</text><rect height="22" width="65.5625" y="68" x="62.15625" class="er attributeBoxOdd"></rect><text style="dominant-baseline: middle; font-size: 10.2px;" transform="translate(67.15625,79)" y="0" x="0" id="text-entity-dboorders-951b9797-0598-5bcd-a3a1-b976a446c791-attr-3-name" class="er entityLabel">customer_id</text><rect height="22" width="23.609375" y="68" x="127.71875" class="er attributeBoxOdd"></rect><text style="dominant-baseline: middle; font-size: 10.2px;" transform="translate(132.71875,79)" y="0" x="0" id="text-entity-dboorders-951b9797-0598-5bcd-a3a1-b976a446c791-attr-3-comment" class="er entityLabel">FK</text><rect height="22" width="62.15625" y="90" x="0" class="er attributeBoxEven"></rect><text style="dominant-baseline: middle; font-size: 10.2px;" transform="translate(5,101)" y="0" x="0" id="text-entity-dboorders-951b9797-0598-5bcd-a3a1-b976a446c791-attr-4-type" class="er entityLabel">varchar(10)</text><rect height="22" width="65.5625" y="90" x="62.15625" class="er attributeBoxEven"></rect><text style="dominant-baseline: middle; font-size: 10.2px;" transform="translate(67.15625,101)" y="0" x="0" id="text-entity-dboorders-951b9797-0598-5bcd-a3a1-b976a446c791-attr-4-name" class="er entityLabel">product_id</text><rect height="22" width="23.609375" y="90" x="127.71875" class="er attributeBoxEven"></rect><text style="dominant-baseline: middle; font-size: 10.2px;" transform="translate(132.71875,101)" y="0" x="0" id="text-entity-dboorders-951b9797-0598-5bcd-a3a1-b976a446c791-attr-4-comment" class="er entityLabel">FK</text><rect height="22" width="62.15625" y="112" x="0" class="er attributeBoxOdd"></rect><text style="dominant-baseline: middle; font-size: 10.2px;" transform="translate(5,123)" y="0" x="0" id="text-entity-dboorders-951b9797-0598-5bcd-a3a1-b976a446c791-attr-5-type" class="er entityLabel">int</text><rect height="22" width="65.5625" y="112" x="62.15625" class="er attributeBoxOdd"></rect><text style="dominant-baseline: middle; font-size: 10.2px;" transform="translate(67.15625,123)" y="0" x="0" id="text-entity-dboorders-951b9797-0598-5bcd-a3a1-b976a446c791-attr-5-name" class="er entityLabel">quantity</text><rect height="22" width="23.609375" y="112" x="127.71875" class="er attributeBoxOdd"></rect><text style="dominant-baseline: middle; font-size: 10.2px;" transform="translate(132.71875,123)" y="0" x="0" id="text-entity-dboorders-951b9797-0598-5bcd-a3a1-b976a446c791-attr-5-comment" class="er entityLabel"></text></g><rect height="14" width="65.3671875" y="189.55918884277344" x="86.01953125" class="er relationshipLabelBox"></rect><text style="text-anchor: middle; dominant-baseline: middle; font-size: 12px;" y="196.55918884277344" x="118.703125" id="rel1" class="er relationshipLabel">customer_id</text><rect height="14" width="56.0390625" y="189.5592498779297" x="327.12530517578125" class="er relationshipLabelBox"></rect><text style="text-anchor: middle; dominant-baseline: middle; font-size: 12px;" y="196.5592498779297" x="355.14483642578125" id="rel2" class="er relationshipLabel">product_id</text></svg>